<?xml version="1.0" encoding="utf-8" ?><svg xmlns="http://www.w3.org/2000/svg" xmlns:xlink="http://www.w3.org/1999/xlink" width="1024" height="1024" viewBox="0 0 1024 1024"><path fill="#C4A139" d="M519.802 175.648C531.177 180.28 551.252 191.209 562.604 196.992L623.198 227.192C680.58 256.135 738.132 284.712 795.607 313.475C812.494 321.817 826.021 336.555 831.786 354.632C837.061 371.168 833.992 389.778 830.791 406.451C822.894 447.573 809.742 488.139 793.924 526.863C784.169 550.264 773.469 573.259 761.848 595.792C757.067 605.6 749.572 618.149 744.123 627.871C739.529 620.315 734.644 608.318 729.563 599.684C718.548 580.964 708.349 568.52 694.082 552.464C712.361 508.841 724.641 462.941 730.585 416.017C732.565 401.31 734.253 387.18 734.638 372.331C720.869 369.198 706.978 364.236 693.633 359.597C615.318 332.374 528.133 284.764 520.136 192.259C519.695 187.155 519.331 180.694 519.802 175.648Z"/><path fill="#C4A139" d="M504.453 176.028L504.773 176.426C505.701 180.272 504.963 186.491 504.615 190.56C502.931 212.214 496.416 233.215 485.547 252.02C457.778 300.508 408.095 328.508 357.981 349.199C335.837 358.47 313.099 366.254 289.918 372.497C293.008 434.079 306.166 494.739 328.87 552.066C306.063 578.768 295.609 595.319 280.138 627.078C274.498 618.802 266.899 603.37 262.052 594.25C254.299 579.975 246.326 563.156 239.648 548.258C220.438 505.701 205.625 461.294 195.441 415.727C193.017 404.686 189.671 388.21 189.559 377.032C189.411 368.225 191.009 359.476 194.259 351.289C206.486 319.674 235.897 310.066 264.004 296.085C289.205 283.278 314.492 270.641 339.863 258.175C374.538 240.591 409.304 223.187 444.159 205.963C462.978 196.479 485.418 184.329 504.453 176.028Z"/><path fill="#C4A139" d="M678.698 588.029C679.891 589.14 684.189 595.346 685.365 597.034C695.357 611.533 704.527 626.582 712.833 642.108C716.271 648.435 720.51 656.042 723.322 662.551C719.99 669.027 715.148 675.197 711.013 681.201C680.38 725.682 639.372 768.265 597.714 802.376C581.809 815.4 548.748 841.06 530.305 846.513C522.154 848.923 512.783 849.131 504.382 848.236C497.13 847.463 490.227 845.318 483.642 842.221C475.564 838.421 468.011 833.29 460.658 828.257C428.058 805.942 398.244 778.423 371.164 749.754C358.27 736.104 346.199 721.904 334.362 707.338C324.222 694.731 311.515 678.24 302.75 664.881C307.975 649.241 336.123 600.853 345.914 588.643C347.929 591.708 350.547 596.904 352.449 600.277C355.997 606.571 359.739 612.754 363.668 618.818C387.716 655.777 420.223 693.621 457.245 717.921C470.416 726.566 503.424 745.424 518.702 742.116C526.989 740.322 535.457 736.458 543.056 732.729C587.823 710.759 623.83 670.702 652.07 630.512C661.708 616.796 669.609 602.083 678.698 588.029Z"/><path fill="#C4A139" d="M511.846 307.219C513.122 307.86 528.77 328.006 532.173 331.46C559.991 359.691 595.845 379.42 633.966 389.835C643.02 392.309 650.639 393.536 659.489 395.714C660.244 432.167 653.962 475.287 645.563 510.516C638.997 506.232 632.46 500.973 625.432 496.38C611.007 486.953 599.347 482.642 584.245 475.632C586.652 463.231 588.193 450.678 588.858 438.063C556.275 429.918 539.931 422.491 512.792 402.912C510.72 403.597 496.131 413.85 492.792 415.796C473.329 427.138 457.859 432.3 436.327 437.842C436.813 450.783 438.422 463.386 440.415 476.154C416.507 485.207 399.267 495.932 378.966 510.789C377.232 501.863 374.493 492.416 372.954 483.502C368.396 457.107 364.323 422.372 365.372 395.512C369.719 393.912 375.725 393.293 380.377 392.212C435.578 379.39 478.134 352.535 511.846 307.219Z"/><path fill="#C4A139" d="M447.142 513.425L448.422 513.423C449.416 514.449 453.975 531.467 455.222 534.998C457.481 541.46 460.161 547.767 463.246 553.878C476.89 580.473 502.691 603.077 533.032 586.759C560.069 572.217 568.025 539.868 576.314 513.045C597.287 520.895 615.872 535.549 632.499 550.182C626.577 567.197 614.252 589.566 604.039 604.329C574.559 647.606 525.44 671.806 474.581 650.712C432.908 633.428 408.317 590.612 391.989 550.816C394.384 548.324 400.019 544.012 402.869 541.749C416.473 530.945 431.259 520.6 447.142 513.425Z"/></svg>